{
	"asset":{
		"generator":"Khronos glTF Blender I/O v3.6.27",
		"version":"2.0"
	},
	"scene":0,
	"scenes":[
		{
			"name":"Scene",
			"nodes":[
				0
			]
		}
	],
	"nodes":[
		{
			"mesh":0,
			"name":"Curve",
			"rotation":[
				0.7071068286895752,
				0,
				0,
				0.7071068286895752
			],
			"scale":[
				300,
				300,
				300
			]
		}
	],
	"meshes":[
		{
			"name":"Curve",
			"primitives":[
				{
					"attributes":{
						"POSITION":0,
						"NORMAL":1,
						"TEXCOORD_0":2
					},
					"indices":3
				}
			]
		}
	],
	"accessors":[
		{
			"bufferView":0,
			"componentType":5126,
			"count":7918,
			"max":[
				0.010770002380013466,
				0.0050999997183680534,
				0.0072871423326432705
			],
			"min":[
				-0.012523138895630836,
				-0.0050999997183680534,
				-0.01159465592354536
			],
			"type":"VEC3"
		},
		{
			"bufferView":1,
			"componentType":5126,
			"count":7918,
			"type":"VEC3"
		},
		{
			"bufferView":2,
			"componentType":5126,
			"count":7918,
			"type":"VEC2"
		},
		{
			"bufferView":3,
			"componentType":5123,
			"count":45684,
			"type":"SCALAR"
		}
	],
	"bufferViews":[
		{
			"buffer":0,
			"byteLength":95016,
			"byteOffset":0,
			"target":34962
		},
		{
			"buffer":0,
			"byteLength":95016,
			"byteOffset":95016,
			"target":34962
		},
		{
			"buffer":0,
			"byteLength":63344,
			"byteOffset":190032,
			"target":34962
		},
		{
			"buffer":0,
			"byteLength":91368,
			"byteOffset":253376,
			"target":34963
		}
	],
	"buffers":[
		{
			"byteLength":344744,
			"uri":"data:application/octet-stream;base64,"
		}
	]
}
