{
	"asset":{
		"generator":"Khronos glTF Blender I/O v3.6.27",
		"version":"2.0"
	},
	"scene":0,
	"scenes":[
		{
			"name":"Scene",
			"nodes":[
				0
			]
		}
	],
	"nodes":[
		{
			"mesh":0,
			"name":"Curve",
			"rotation":[
				0.7071068286895752,
				0,
				0,
				0.7071068286895752
			],
			"scale":[
				300,
				300,
				300
			]
		}
	],
	"meshes":[
		{
			"name":"Curve",
			"primitives":[
				{
					"attributes":{
						"POSITION":0,
						"NORMAL":1,
						"TEXCOORD_0":2
					},
					"indices":3
				}
			]
		}
	],
	"accessors":[
		{
			"bufferView":0,
			"componentType":5126,
			"count":7919,
			"max":[
				0.011364244855940342,
				0.005499999970197678,
				0.0076871407218277454
			],
			"min":[
				-0.013116229325532913,
				-0.005499999970197678,
				-0.011994658969342709
			],
			"type":"VEC3"
		},
		{
			"bufferView":1,
			"componentType":5126,
			"count":7919,
			"type":"VEC3"
		},
		{
			"bufferView":2,
			"componentType":5126,
			"count":7919,
			"type":"VEC2"
		},
		{
			"bufferView":3,
			"componentType":5123,
			"count":45684,
			"type":"SCALAR"
		}
	],
	"bufferViews":[
		{
			"buffer":0,
			"byteLength":95028,
			"byteOffset":0,
			"target":34962
		},
		{
			"buffer":0,
			"byteLength":95028,
			"byteOffset":95028,
			"target":34962
		},
		{
			"buffer":0,
			"byteLength":63352,
			"byteOffset":190056,
			"target":34962
		},
		{
			"buffer":0,
			"byteLength":91368,
			"byteOffset":253408,
			"target":34963
		}
	],
	"buffers":[
		{
			"byteLength":344776,
			"uri":"data:application/octet-stream;base64,"
		}
	]
}
